<svg xmlns="http://www.w3.org/2000/svg" viewBox="0 0 800 300" font-family="'Segoe UI', 'Helvetica Neue', Arial, sans-serif">
  <rect x="0" y="0" width="800" height="300" fill="#EDF7F6"/>
  <text x="400" y="36" text-anchor="middle" font-size="24" font-weight="700" fill="#1E7A72">K3 Keselamatan Kerja Cleaning</text>
  <text x="400" y="58" text-anchor="middle" font-size="14" fill="#E8A33D">清掃作業の労働安全衛生（K3）</text>
  <g font-size="10.5" fill="#2E2620">
    <g transform="translate(90,90)">
      <rect width="140" height="120" rx="14" fill="#FFFFFF" stroke="#1E7A72" stroke-width="3"/>
      <circle cx="70" cy="32" r="18" fill="#155C56"/>
      <circle cx="70" cy="17" r="4.2" stroke="#FFFFFF" stroke-width="2" fill="none" stroke-linecap="round" stroke-linejoin="round"/><path d="M70 21 v15 M62 25 l8 4 l8 -4 M64 36 l6 -4 M76 36 l-6 -4" stroke="#FFFFFF" stroke-width="2" fill="none" stroke-linecap="round" stroke-linejoin="round"/>
      <text x="70" y="66" text-anchor="middle" font-weight="700" font-size="11.5" fill="#123B36">Kerja di Ketinggian</text>
      <text x="70" y="80" text-anchor="middle" font-size="9.5" fill="#E8A33D">高所作業</text>
      <text x="70" y="102" text-anchor="middle" font-size="9" fill="#3A5652">Harness &amp; tali</text>
      <text x="70" y="114" text-anchor="middle" font-size="9" fill="#3A5652">pengaman wajib</text>
    </g>
    <g transform="translate(250,90)">
      <rect width="140" height="120" rx="14" fill="#FFFFFF" stroke="#1E7A72" stroke-width="3"/>
      <circle cx="70" cy="32" r="18" fill="#155C56"/>
      <path d="M70 15 l15 27 h-30 z" stroke="#FFFFFF" stroke-width="2" fill="none" stroke-linecap="round" stroke-linejoin="round"/><path d="M70 23 v10 M70 37 v2" stroke="#FFFFFF" stroke-width="2" fill="none" stroke-linecap="round" stroke-linejoin="round"/>
      <text x="70" y="66" text-anchor="middle" font-weight="700" font-size="11.5" fill="#123B36">Tanda Bahaya</text>
      <text x="70" y="80" text-anchor="middle" font-size="9.5" fill="#E8A33D">危険標識</text>
      <text x="70" y="102" text-anchor="middle" font-size="9" fill="#3A5652">Simbol bahan</text>
      <text x="70" y="114" text-anchor="middle" font-size="9" fill="#3A5652">kimia berbahaya</text>
    </g>
    <g transform="translate(410,90)">
      <rect width="140" height="120" rx="14" fill="#FFFFFF" stroke="#1E7A72" stroke-width="3"/>
      <circle cx="70" cy="32" r="18" fill="#155C56"/>
      <path d="M59 26 q11 -9 22 0 q0 11 -11 13 q-11 -2 -11 -13 z" stroke="#FFFFFF" stroke-width="2" fill="none" stroke-linecap="round" stroke-linejoin="round"/><path d="M59 27 h-4 M81 27 h4" stroke="#FFFFFF" stroke-width="2" fill="none" stroke-linecap="round" stroke-linejoin="round"/>
      <text x="70" y="66" text-anchor="middle" font-weight="700" font-size="11.5" fill="#123B36">Alat Pelindung Diri</text>
      <text x="70" y="80" text-anchor="middle" font-size="9.5" fill="#E8A33D">個人保護具（PPE）</text>
      <text x="70" y="102" text-anchor="middle" font-size="9" fill="#3A5652">Masker, sarung tangan,</text>
      <text x="70" y="114" text-anchor="middle" font-size="9" fill="#3A5652">sepatu safety</text>
    </g>
    <g transform="translate(570,90)">
      <rect width="140" height="120" rx="14" fill="#FFFFFF" stroke="#1E7A72" stroke-width="3"/>
      <circle cx="70" cy="32" r="18" fill="#155C56"/>
      <rect x="63" y="20" width="14" height="22" rx="2" stroke="#FFFFFF" stroke-width="2" fill="none" stroke-linecap="round" stroke-linejoin="round"/><rect x="66" y="14" width="8" height="6" rx="1" stroke="#FFFFFF" stroke-width="2" fill="none" stroke-linecap="round" stroke-linejoin="round"/><path d="M66 29 h8" stroke="#FFFFFF" stroke-width="2" fill="none" stroke-linecap="round" stroke-linejoin="round"/>
      <text x="70" y="66" text-anchor="middle" font-weight="700" font-size="11.5" fill="#123B36">Penanganan Bahan Kimia</text>
      <text x="70" y="80" text-anchor="middle" font-size="9.5" fill="#E8A33D">化学薬品の取扱い</text>
      <text x="70" y="102" text-anchor="middle" font-size="9" fill="#3A5652">Prosedur aman</text>
      <text x="70" y="114" text-anchor="middle" font-size="9" fill="#3A5652">simpan &amp; gunakan</text>
    </g>
  </g>
  <g>
    <rect x="60" y="226" width="680" height="46" rx="10" fill="#1E7A72"/>
    <text x="400" y="245" text-anchor="middle" font-size="11.5" font-weight="700" fill="#EDF7F6">Keselamatan kerja adalah prioritas utama petugas cleaning</text>
    <text x="400" y="262" text-anchor="middle" font-size="10.5" fill="#F6DDB0">安全第一が清掃員の最優先事項</text>
  </g>
</svg>
