<svg xmlns="http://www.w3.org/2000/svg" viewBox="0 0 800 300" font-family="'Segoe UI', 'Helvetica Neue', Arial, sans-serif">
  <rect x="0" y="0" width="800" height="300" fill="#EDF7F6"/>
  <text x="400" y="36" text-anchor="middle" font-size="24" font-weight="700" fill="#1E7A72">Manajemen Bisnis &amp; Kontrak Cleaning</text>
  <text x="400" y="58" text-anchor="middle" font-size="14" fill="#E8A33D">清掃事業・契約管理</text>
  <g font-size="10.5" fill="#2E2620">
    <g transform="translate(90,90)">
      <rect width="140" height="120" rx="14" fill="#FFFFFF" stroke="#1E7A72" stroke-width="3"/>
      <circle cx="70" cy="32" r="18" fill="#155C56"/>
      <rect x="57" y="13" width="26" height="33" rx="2" stroke="#FFFFFF" stroke-width="2" fill="none" stroke-linecap="round" stroke-linejoin="round"/><path d="M62 21 h16 M62 27 h16 M62 33 h11" stroke="#FFFFFF" stroke-width="2" fill="none" stroke-linecap="round" stroke-linejoin="round"/><path d="M63 40 q4.5 -4.5 8.5 0" stroke="#FFFFFF" stroke-width="2" fill="none" stroke-linecap="round" stroke-linejoin="round"/>
      <text x="70" y="66" text-anchor="middle" font-weight="700" font-size="11.5" fill="#123B36">Kontrak Kerja</text>
      <text x="70" y="80" text-anchor="middle" font-size="9.5" fill="#E8A33D">業務契約書</text>
      <text x="70" y="102" text-anchor="middle" font-size="9" fill="#3A5652">Kesepakatan lingkup</text>
      <text x="70" y="114" text-anchor="middle" font-size="9" fill="#3A5652">&amp; durasi layanan</text>
    </g>
    <g transform="translate(250,90)">
      <rect width="140" height="120" rx="14" fill="#FFFFFF" stroke="#1E7A72" stroke-width="3"/>
      <circle cx="70" cy="32" r="18" fill="#155C56"/>
      <path d="M53 29 h13 l6 6 l6 -6 h13" stroke="#FFFFFF" stroke-width="2" fill="none" stroke-linecap="round" stroke-linejoin="round"/><path d="M60 29 l4.5 -6.5 M80 29 l-4.5 -6.5" stroke="#FFFFFF" stroke-width="2" fill="none" stroke-linecap="round" stroke-linejoin="round"/>
      <text x="70" y="66" text-anchor="middle" font-weight="700" font-size="11.5" fill="#123B36">Hubungan Klien</text>
      <text x="70" y="80" text-anchor="middle" font-size="9.5" fill="#E8A33D">顧客対応</text>
      <text x="70" y="102" text-anchor="middle" font-size="9" fill="#3A5652">Komunikasi &amp;</text>
      <text x="70" y="114" text-anchor="middle" font-size="9" fill="#3A5652">kepuasan klien</text>
    </g>
    <g transform="translate(410,90)">
      <rect width="140" height="120" rx="14" fill="#FFFFFF" stroke="#1E7A72" stroke-width="3"/>
      <circle cx="70" cy="32" r="18" fill="#155C56"/>
      <rect x="57" y="17" width="26" height="29" rx="3" stroke="#FFFFFF" stroke-width="2" fill="none" stroke-linecap="round" stroke-linejoin="round"/><rect x="64" y="13" width="12" height="7" rx="2" stroke="#FFFFFF" stroke-width="2" fill="none" stroke-linecap="round" stroke-linejoin="round"/><path d="M62 27 l3 3 l7 -8 M62 37 l3 3 l7 -8" stroke="#FFFFFF" stroke-width="2" fill="none" stroke-linecap="round" stroke-linejoin="round"/>
      <text x="70" y="66" text-anchor="middle" font-weight="700" font-size="11.5" fill="#123B36">Penawaran Jasa</text>
      <text x="70" y="80" text-anchor="middle" font-size="9.5" fill="#E8A33D">見積り・提案</text>
      <text x="70" y="102" text-anchor="middle" font-size="9" fill="#3A5652">Penyusunan proposal</text>
      <text x="70" y="114" text-anchor="middle" font-size="9" fill="#3A5652">layanan cleaning</text>
    </g>
    <g transform="translate(570,90)">
      <rect width="140" height="120" rx="14" fill="#FFFFFF" stroke="#1E7A72" stroke-width="3"/>
      <circle cx="70" cy="32" r="18" fill="#155C56"/>
      <path d="M59 21 h22 l-3.2 21 h-15.6 z" stroke="#FFFFFF" stroke-width="2" fill="none" stroke-linecap="round" stroke-linejoin="round"/><path d="M63 21 q7 -9 14 0" stroke="#FFFFFF" stroke-width="2" fill="none" stroke-linecap="round" stroke-linejoin="round"/>
      <text x="70" y="66" text-anchor="middle" font-weight="700" font-size="11.5" fill="#123B36">Standar Layanan</text>
      <text x="70" y="80" text-anchor="middle" font-size="9.5" fill="#E8A33D">サービス基準</text>
      <text x="70" y="102" text-anchor="middle" font-size="9" fill="#3A5652">Ketentuan mutu</text>
      <text x="70" y="114" text-anchor="middle" font-size="9" fill="#3A5652">dalam kontrak</text>
    </g>
  </g>
  <g>
    <rect x="60" y="226" width="680" height="46" rx="10" fill="#1E7A72"/>
    <text x="400" y="245" text-anchor="middle" font-size="11.5" font-weight="700" fill="#EDF7F6">Kontrak yang jelas menjadi dasar hubungan bisnis yang baik</text>
    <text x="400" y="262" text-anchor="middle" font-size="10.5" fill="#F6DDB0">明確な契約が良好な取引関係の基盤となる</text>
  </g>
</svg>
