<svg xmlns="http://www.w3.org/2000/svg" viewBox="0 0 800 300" font-family="'Segoe UI', 'Helvetica Neue', Arial, sans-serif">
<rect x="0" y="0" width="800" height="300" fill="#EAF6F2"/>
<text x="400" y="32" text-anchor="middle" font-size="21" font-weight="700" fill="#1C3A3A">Pengendalian Hama &amp; Penyakit Budidaya</text>
<text x="400" y="52" text-anchor="middle" font-size="13" fill="#5A8F87">害虫・疾病の対策</text>
<g transform="translate(40,110)">
<rect width="166" height="150" rx="14" fill="#FFFFFF" stroke="#13715E" stroke-width="2.5"/>
<g transform="translate(83.0,54)"><rect x="-20" y="-16" width="40" height="32" rx="4" fill="none" stroke="#13715E" stroke-width="2.5" stroke-dasharray="4,3"/>
<ellipse cx="0" cy="0" rx="10" ry="6" fill="#13715E"/></g>
<text x="83.0" y="104" text-anchor="middle" font-weight="700" font-size="12" fill="#1C3A3A">Isolasi Ikan Sakit</text>
<text x="83.0" y="124" text-anchor="middle" font-size="10" fill="#5A8F87">隔離</text>
</g>
<g transform="translate(224,110)">
<rect width="166" height="150" rx="14" fill="#FFFFFF" stroke="#13715E" stroke-width="2.5"/>
<g transform="translate(83.0,54)"><rect x="-8" y="-18" width="16" height="30" rx="4" fill="#13715E"/>
<rect x="-4" y="-24" width="8" height="8" fill="#13715E"/>
<circle cx="-14" cy="6" r="2" fill="#13715E"/><circle cx="14" cy="10" r="2" fill="#13715E"/></g>
<text x="83.0" y="104" text-anchor="middle" font-weight="700" font-size="12" fill="#1C3A3A">Disinfeksi Alat</text>
<text x="83.0" y="124" text-anchor="middle" font-size="10" fill="#5A8F87">消毒</text>
</g>
<g transform="translate(408,110)">
<rect width="166" height="150" rx="14" fill="#FFFFFF" stroke="#13715E" stroke-width="2.5"/>
<g transform="translate(83.0,54)"><path d="M-22,-14 h44 v8 a22,10 0 0 1 -44,0 z" fill="none" stroke="#13715E" stroke-width="2.5"/>
<line x1="-20" y1="-20" x2="-20" y2="20" stroke="#13715E" stroke-width="2"/>
<line x1="-10" y1="-20" x2="-10" y2="20" stroke="#13715E" stroke-width="2"/>
<line x1="0" y1="-20" x2="0" y2="20" stroke="#13715E" stroke-width="2"/>
<line x1="10" y1="-20" x2="10" y2="20" stroke="#13715E" stroke-width="2"/>
<line x1="20" y1="-20" x2="20" y2="20" stroke="#13715E" stroke-width="2"/>
<line x1="-20" y1="-20" x2="20" y2="-20" stroke="#13715E" stroke-width="2"/>
<line x1="-20" y1="-10" x2="20" y2="-10" stroke="#13715E" stroke-width="2"/>
<line x1="-20" y1="0" x2="20" y2="0" stroke="#13715E" stroke-width="2"/>
<line x1="-20" y1="10" x2="20" y2="10" stroke="#13715E" stroke-width="2"/>
<line x1="-20" y1="20" x2="20" y2="20" stroke="#13715E" stroke-width="2"/></g>
<text x="83.0" y="104" text-anchor="middle" font-weight="700" font-size="12" fill="#1C3A3A">Jaring Anti Predator</text>
<text x="83.0" y="124" text-anchor="middle" font-size="10" fill="#5A8F87">防護ネット</text>
</g>
<g transform="translate(592,110)">
<rect width="166" height="150" rx="14" fill="#FFFFFF" stroke="#13715E" stroke-width="2.5"/>
<g transform="translate(83.0,54)"><circle cx="-10" cy="0" r="12" fill="#13715E"/>
<circle cx="12" cy="0" r="9" fill="#13715E" opacity="0.6"/>
<path d="M-18,20 q8,-8 16,0" stroke="#13715E" stroke-width="2.5" fill="none"/></g>
<text x="83.0" y="104" text-anchor="middle" font-weight="700" font-size="12" fill="#1C3A3A">Konsultasi Ahli</text>
<text x="83.0" y="124" text-anchor="middle" font-size="10" fill="#5A8F87">専門家に相談</text>
</g>
</svg>