<svg xmlns="http://www.w3.org/2000/svg" viewBox="0 0 900 790" width="900" height="790" font-family="'Noto Sans JP','Hiragino Sans',sans-serif">
<defs>
  <marker id="arrow" markerWidth="9" markerHeight="9" refX="7" refY="3.5" orient="auto"><path d="M0,0 L7,3.5 L0,7 Z" fill="#17324a"/></marker>
  <marker id="arrowM" markerWidth="9" markerHeight="9" refX="7" refY="3.5" orient="auto"><path d="M0,0 L7,3.5 L0,7 Z" fill="#5c6b78"/></marker>
</defs>
<rect x="0" y="0" width="900" height="790" rx="24" fill="#f7f9fb"/>
<text x="40" y="50" font-size="24" font-weight="700" fill="#17324a">Struktur Bangunan Bertingkat</text>
<text x="40" y="76" font-size="14" fill="#5c6b78">鉄筋コンクリート造 (RC造) &#8212; bagian-bagian utama dari pondasi hingga atap</text>
<rect x="0" y="590" width="900" height="120" fill="#eef3f7"/><line x1="0" y1="590" x2="900" y2="590" stroke="#5c6b78" stroke-width="2"/><line x1="60" y1="590" x2="46" y2="604" stroke="#5c6b78" stroke-width="1.5" opacity="0.5"/><line x1="94" y1="590" x2="80" y2="604" stroke="#5c6b78" stroke-width="1.5" opacity="0.5"/><line x1="128" y1="590" x2="114" y2="604" stroke="#5c6b78" stroke-width="1.5" opacity="0.5"/><line x1="162" y1="590" x2="148" y2="604" stroke="#5c6b78" stroke-width="1.5" opacity="0.5"/><line x1="196" y1="590" x2="182" y2="604" stroke="#5c6b78" stroke-width="1.5" opacity="0.5"/><line x1="230" y1="590" x2="216" y2="604" stroke="#5c6b78" stroke-width="1.5" opacity="0.5"/><line x1="264" y1="590" x2="250" y2="604" stroke="#5c6b78" stroke-width="1.5" opacity="0.5"/><line x1="298" y1="590" x2="284" y2="604" stroke="#5c6b78" stroke-width="1.5" opacity="0.5"/><line x1="332" y1="590" x2="318" y2="604" stroke="#5c6b78" stroke-width="1.5" opacity="0.5"/><line x1="366" y1="590" x2="352" y2="604" stroke="#5c6b78" stroke-width="1.5" opacity="0.5"/><line x1="400" y1="590" x2="386" y2="604" stroke="#5c6b78" stroke-width="1.5" opacity="0.5"/><line x1="434" y1="590" x2="420" y2="604" stroke="#5c6b78" stroke-width="1.5" opacity="0.5"/><line x1="468" y1="590" x2="454" y2="604" stroke="#5c6b78" stroke-width="1.5" opacity="0.5"/><line x1="502" y1="590" x2="488" y2="604" stroke="#5c6b78" stroke-width="1.5" opacity="0.5"/><line x1="536" y1="590" x2="522" y2="604" stroke="#5c6b78" stroke-width="1.5" opacity="0.5"/><line x1="570" y1="590" x2="556" y2="604" stroke="#5c6b78" stroke-width="1.5" opacity="0.5"/><line x1="604" y1="590" x2="590" y2="604" stroke="#5c6b78" stroke-width="1.5" opacity="0.5"/><line x1="638" y1="590" x2="624" y2="604" stroke="#5c6b78" stroke-width="1.5" opacity="0.5"/><line x1="672" y1="590" x2="658" y2="604" stroke="#5c6b78" stroke-width="1.5" opacity="0.5"/><line x1="706" y1="590" x2="692" y2="604" stroke="#5c6b78" stroke-width="1.5" opacity="0.5"/><line x1="740" y1="590" x2="726" y2="604" stroke="#5c6b78" stroke-width="1.5" opacity="0.5"/><line x1="774" y1="590" x2="760" y2="604" stroke="#5c6b78" stroke-width="1.5" opacity="0.5"/><line x1="808" y1="590" x2="794" y2="604" stroke="#5c6b78" stroke-width="1.5" opacity="0.5"/><line x1="842" y1="590" x2="828" y2="604" stroke="#5c6b78" stroke-width="1.5" opacity="0.5"/><line x1="876" y1="590" x2="862" y2="604" stroke="#5c6b78" stroke-width="1.5" opacity="0.5"/><rect x="280.0" y="600" width="20" height="90" fill="none" stroke="#5c6b78" stroke-width="3" stroke-dasharray="5 4"/><rect x="400.0" y="600" width="20" height="90" fill="none" stroke="#5c6b78" stroke-width="3" stroke-dasharray="5 4"/><rect x="520.0" y="600" width="20" height="90" fill="none" stroke="#5c6b78" stroke-width="3" stroke-dasharray="5 4"/><rect x="640.0" y="600" width="20" height="90" fill="none" stroke="#5c6b78" stroke-width="3" stroke-dasharray="5 4"/><text x="690.0" y="645" font-size="13" font-weight="700" fill="#5c6b78">杭</text><text x="690.0" y="660" font-size="10.5" fill="#5c6b78">pile foundation</text><rect x="260.0" y="556" width="380" height="34" rx="4" fill="none" stroke="#0b5cad" stroke-width="4"/><text x="650.0" y="571" font-size="13" font-weight="700" fill="#0b5cad">基礎</text><text x="650.0" y="586" font-size="10.5" fill="#5c6b78">pondasi</text><rect x="281.0" y="442" width="18" height="114" fill="none" stroke="#1b8a6b" stroke-width="3.5"/><rect x="401.0" y="442" width="18" height="114" fill="none" stroke="#1b8a6b" stroke-width="3.5"/><rect x="521.0" y="442" width="18" height="114" fill="none" stroke="#1b8a6b" stroke-width="3.5"/><rect x="641.0" y="442" width="18" height="114" fill="none" stroke="#1b8a6b" stroke-width="3.5"/><rect x="260.0" y="426" width="380" height="16" rx="3" fill="none" stroke="#c07a1b" stroke-width="3.5"/><line x1="260.0" y1="556" x2="640.0" y2="556" stroke="#5c6b78" stroke-width="1.5" stroke-dasharray="3 3"/><rect x="260.0" y="442" width="380" height="114" fill="#0b5cad" opacity="0.05"/><text x="220.0" y="496.0" text-anchor="end" font-size="13" font-weight="700" fill="#17324a">1F</text><rect x="281.0" y="312" width="18" height="114" fill="none" stroke="#1b8a6b" stroke-width="3.5"/><rect x="401.0" y="312" width="18" height="114" fill="none" stroke="#1b8a6b" stroke-width="3.5"/><rect x="521.0" y="312" width="18" height="114" fill="none" stroke="#1b8a6b" stroke-width="3.5"/><rect x="641.0" y="312" width="18" height="114" fill="none" stroke="#1b8a6b" stroke-width="3.5"/><rect x="260.0" y="296" width="380" height="16" rx="3" fill="none" stroke="#c07a1b" stroke-width="3.5"/><line x1="260.0" y1="426" x2="640.0" y2="426" stroke="#5c6b78" stroke-width="1.5" stroke-dasharray="3 3"/><rect x="260.0" y="312" width="380" height="114" fill="#0b5cad" opacity="0.05"/><text x="220.0" y="366.0" text-anchor="end" font-size="13" font-weight="700" fill="#17324a">2F</text><rect x="281.0" y="182" width="18" height="114" fill="none" stroke="#1b8a6b" stroke-width="3.5"/><rect x="401.0" y="182" width="18" height="114" fill="none" stroke="#1b8a6b" stroke-width="3.5"/><rect x="521.0" y="182" width="18" height="114" fill="none" stroke="#1b8a6b" stroke-width="3.5"/><rect x="641.0" y="182" width="18" height="114" fill="none" stroke="#1b8a6b" stroke-width="3.5"/><rect x="260.0" y="166" width="380" height="16" rx="3" fill="none" stroke="#c07a1b" stroke-width="3.5"/><line x1="260.0" y1="296" x2="640.0" y2="296" stroke="#5c6b78" stroke-width="1.5" stroke-dasharray="3 3"/><rect x="260.0" y="182" width="380" height="114" fill="#0b5cad" opacity="0.05"/><text x="220.0" y="236.0" text-anchor="end" font-size="13" font-weight="700" fill="#17324a">3F</text><path d="M240.0 166 L450.0 96 L660.0 166 Z" fill="none" stroke="#c0392b" stroke-width="4" stroke-linejoin="round"/><text x="700.0" y="136" font-size="13" font-weight="700" fill="#c0392b">屋根</text><text x="700.0" y="151" font-size="10.5" fill="#5c6b78">atap (防水 penting)</text><text x="700.0" y="231" font-size="13" font-weight="700" fill="#1b8a6b">柱</text><text x="700.0" y="246" font-size="10.5" fill="#5c6b78">kolom (鉄骨/鉄筋)</text><text x="700.0" y="326" font-size="13" font-weight="700" fill="#c07a1b">梁</text><text x="700.0" y="341" font-size="10.5" fill="#5c6b78">balok</text><rect x="40" y="734" width="820" height="40" rx="10" fill="#ffffff" stroke="#c7d2da" stroke-width="1.5"/><text x="450.0" y="759" text-anchor="middle" font-size="12" fill="#5c6b78">Urutan umum: 杭工事 → 基礎工事 → 鉄筋・型枠工事 → 鉄骨工事 → 内外装仕上げ工事 → 耐震工事</text></svg>