<svg xmlns="http://www.w3.org/2000/svg" viewBox="0 0 800 300" font-family="'Segoe UI', 'Helvetica Neue', Arial, sans-serif">
  <rect x="0" y="0" width="800" height="300" fill="#EEF2F5"/>
  <text x="400" y="36" text-anchor="middle" font-size="24" font-weight="700" fill="#2E4A6B">Perkakas Bengkel</text>
  <text x="400" y="58" text-anchor="middle" font-size="14" fill="#C9542C">工具（Kougu）</text>
  <g font-size="10.5" fill="#2E2620">
    <g transform="translate(90,90)">
      <rect width="140" height="120" rx="14" fill="#FFFFFF" stroke="#2E4A6B" stroke-width="3"/>
      <circle cx="70" cy="32" r="18" fill="#3A5570"/>
<path d="M60 44 l12 -12 M66 22 a6 6 0 1 1 8 8 l-14 14 -4 -4 z" stroke="#FFFFFF" stroke-width="2" fill="none" stroke-linecap="round" stroke-linejoin="round"/>
      <text x="70" y="66" text-anchor="middle" font-weight="700" font-size="11.5" fill="#20303F">Kunci Pas/Ring</text>
      <text x="70" y="80" text-anchor="middle" font-size="9.5" fill="#C9542C">スパナ・レンチ</text>
      <text x="70" y="102" text-anchor="middle" font-size="9" fill="#3A4C5C">Mengencangkan &amp;</text>
      <text x="70" y="114" text-anchor="middle" font-size="9" fill="#3A4C5C">melepas baut/mur</text>
    </g>
    <g transform="translate(250,90)">
      <rect width="140" height="120" rx="14" fill="#FFFFFF" stroke="#2E4A6B" stroke-width="3"/>
      <circle cx="70" cy="32" r="18" fill="#3A5570"/>
<path d="M58 42 l10 -10 M66 20 l8 8 l4 -4 -8 -8 z" stroke="#FFFFFF" stroke-width="2" fill="none" stroke-linecap="round" stroke-linejoin="round"/>
      <text x="70" y="66" text-anchor="middle" font-weight="700" font-size="11.5" fill="#20303F">Obeng</text>
      <text x="70" y="80" text-anchor="middle" font-size="9.5" fill="#C9542C">ドライバー</text>
      <text x="70" y="102" text-anchor="middle" font-size="9" fill="#3A4C5C">Memasang/melepas</text>
      <text x="70" y="114" text-anchor="middle" font-size="9" fill="#3A4C5C">sekrup komponen</text>
    </g>
    <g transform="translate(410,90)">
      <rect width="140" height="120" rx="14" fill="#FFFFFF" stroke="#2E4A6B" stroke-width="3"/>
      <circle cx="70" cy="32" r="18" fill="#3A5570"/>
<rect x="56" y="26" width="28" height="16" rx="2" stroke="#FFFFFF" stroke-width="2" fill="none" stroke-linecap="round" stroke-linejoin="round"/><path d="M64 26 v-4 h12 v4" stroke="#FFFFFF" stroke-width="2" fill="none" stroke-linecap="round" stroke-linejoin="round"/><path d="M56 32 h28" stroke="#FFFFFF" stroke-width="2" fill="none" stroke-linecap="round" stroke-linejoin="round"/>
      <text x="70" y="66" text-anchor="middle" font-weight="700" font-size="11.5" fill="#20303F">Kotak Perkakas</text>
      <text x="70" y="80" text-anchor="middle" font-size="9.5" fill="#C9542C">工具箱（ツールボックス）</text>
      <text x="70" y="102" text-anchor="middle" font-size="9" fill="#3A4C5C">Penyimpanan &amp; organisasi</text>
      <text x="70" y="114" text-anchor="middle" font-size="9" fill="#3A4C5C">peralatan bengkel</text>
    </g>
    <g transform="translate(570,90)">
      <rect width="140" height="120" rx="14" fill="#FFFFFF" stroke="#2E4A6B" stroke-width="3"/>
      <circle cx="70" cy="32" r="18" fill="#3A5570"/>
<path d="M70 20 v-4 M70 44 v4 M58 32 h-4 M82 32 h4 M62 24 l-3 -3 M78 40 l3 3 M78 24 l3 -3 M62 40 l-3 3" stroke="#FFFFFF" stroke-width="2" fill="none" stroke-linecap="round" stroke-linejoin="round"/><circle cx="70" cy="32" r="8" stroke="#FFFFFF" stroke-width="2" fill="none" stroke-linecap="round" stroke-linejoin="round"/>
      <text x="70" y="66" text-anchor="middle" font-weight="700" font-size="11.5" fill="#20303F">Dongkrak</text>
      <text x="70" y="80" text-anchor="middle" font-size="9.5" fill="#C9542C">ジャッキ</text>
      <text x="70" y="102" text-anchor="middle" font-size="9" fill="#3A4C5C">Mengangkat kendaraan</text>
      <text x="70" y="114" text-anchor="middle" font-size="9" fill="#3A4C5C">untuk perbaikan</text>
    </g>
  </g>
  <g>
    <rect x="60" y="226" width="680" height="46" rx="10" fill="#2E4A6B"/>
    <text x="400" y="245" text-anchor="middle" font-size="11.5" font-weight="700" fill="#EEF2F5">Gunakan perkakas yang tepat &amp; rawat dengan baik</text>
    <text x="400" y="262" text-anchor="middle" font-size="10.5" fill="#C9D6E2">適切な工具の使用と管理</text>
  </g>
</svg>
