<svg xmlns="http://www.w3.org/2000/svg" viewBox="0 0 800 300" font-family="'Segoe UI', 'Helvetica Neue', Arial, sans-serif">
  <rect x="0" y="0" width="800" height="300" fill="#EEF2F5"/>
  <text x="400" y="36" text-anchor="middle" font-size="24" font-weight="700" fill="#2E4A6B">Prosedur Inspeksi Berkala</text>
  <text x="400" y="58" text-anchor="middle" font-size="14" fill="#C9542C">定期点検（Teiki Tenken）</text>
  <g font-size="10.5" fill="#2E2620">
    <g transform="translate(90,90)">
      <rect width="140" height="120" rx="14" fill="#FFFFFF" stroke="#2E4A6B" stroke-width="3"/>
      <circle cx="70" cy="32" r="18" fill="#3A5570"/>
<rect x="60" y="18" width="20" height="26" rx="2" stroke="#FFFFFF" stroke-width="2" fill="none" stroke-linecap="round" stroke-linejoin="round"/><path d="M64 24 l3 3 l6 -7 M64 32 l3 3 l6 -7" stroke="#FFFFFF" stroke-width="2" fill="none" stroke-linecap="round" stroke-linejoin="round"/>
      <text x="70" y="66" text-anchor="middle" font-weight="700" font-size="11.5" fill="#20303F">Daftar Periksa</text>
      <text x="70" y="80" text-anchor="middle" font-size="9.5" fill="#C9542C">点検リスト</text>
      <text x="70" y="102" text-anchor="middle" font-size="9" fill="#3A4C5C">Cek sesuai standar</text>
      <text x="70" y="114" text-anchor="middle" font-size="9" fill="#3A4C5C">jadwal berkala</text>
    </g>
    <g transform="translate(250,90)">
      <rect width="140" height="120" rx="14" fill="#FFFFFF" stroke="#2E4A6B" stroke-width="3"/>
      <circle cx="70" cy="32" r="18" fill="#3A5570"/>
<circle cx="66" cy="28" r="9" stroke="#FFFFFF" stroke-width="2" fill="none" stroke-linecap="round" stroke-linejoin="round"/><path d="M73 35 l8 8" stroke="#FFFFFF" stroke-width="2" fill="none" stroke-linecap="round" stroke-linejoin="round"/>
      <text x="70" y="66" text-anchor="middle" font-weight="700" font-size="11.5" fill="#20303F">Pemeriksaan Visual</text>
      <text x="70" y="80" text-anchor="middle" font-size="9.5" fill="#C9542C">目視点検</text>
      <text x="70" y="102" text-anchor="middle" font-size="9" fill="#3A4C5C">Amati kebocoran, retak,</text>
      <text x="70" y="114" text-anchor="middle" font-size="9" fill="#3A4C5C">korosi &amp; keausan</text>
    </g>
    <g transform="translate(410,90)">
      <rect width="140" height="120" rx="14" fill="#FFFFFF" stroke="#2E4A6B" stroke-width="3"/>
      <circle cx="70" cy="32" r="18" fill="#3A5570"/>
<path d="M58 38 a14 14 0 0 1 24 0" stroke="#FFFFFF" stroke-width="2" fill="none" stroke-linecap="round" stroke-linejoin="round"/><path d="M70 34 l-6 -8" stroke="#FFFFFF" stroke-width="2" fill="none" stroke-linecap="round" stroke-linejoin="round"/><circle cx="70" cy="34" r="2" fill="#FFFFFF"/>
      <text x="70" y="66" text-anchor="middle" font-weight="700" font-size="11.5" fill="#20303F">Ukur Parameter</text>
      <text x="70" y="80" text-anchor="middle" font-size="9.5" fill="#C9542C">数値測定</text>
      <text x="70" y="102" text-anchor="middle" font-size="9" fill="#3A4C5C">Tekanan ban, oli,</text>
      <text x="70" y="114" text-anchor="middle" font-size="9" fill="#3A4C5C">cairan pendingin</text>
    </g>
    <g transform="translate(570,90)">
      <rect width="140" height="120" rx="14" fill="#FFFFFF" stroke="#2E4A6B" stroke-width="3"/>
      <circle cx="70" cy="32" r="18" fill="#3A5570"/>
<path d="M58 24 h24 M62 24 v14 M78 24 v14 M58 38 h24" stroke="#FFFFFF" stroke-width="2" fill="none" stroke-linecap="round" stroke-linejoin="round"/>
      <text x="70" y="66" text-anchor="middle" font-weight="700" font-size="11.5" fill="#20303F">Catat Hasil</text>
      <text x="70" y="80" text-anchor="middle" font-size="9.5" fill="#C9542C">点検記録</text>
      <text x="70" y="102" text-anchor="middle" font-size="9" fill="#3A4C5C">Dokumentasikan hasil</text>
      <text x="70" y="114" text-anchor="middle" font-size="9" fill="#3A4C5C">untuk tindak lanjut</text>
    </g>
  </g>
  <g>
    <rect x="60" y="226" width="680" height="46" rx="10" fill="#2E4A6B"/>
    <text x="400" y="245" text-anchor="middle" font-size="11.5" font-weight="700" fill="#EEF2F5">Inspeksi rutin mencegah kerusakan besar &amp; menjaga keselamatan</text>
    <text x="400" y="262" text-anchor="middle" font-size="10.5" fill="#C9D6E2">予防保全（Yobou Hozen）</text>
  </g>
</svg>
