<svg xmlns="http://www.w3.org/2000/svg" viewBox="0 0 800 300" font-family="'Segoe UI', 'Helvetica Neue', Arial, sans-serif">
<rect x="0" y="0" width="800" height="300" fill="#EAF4FA"/>
<text x="400" y="32" text-anchor="middle" font-size="21" font-weight="700" fill="#1C3A4B">Mesin &amp; Alat Perikanan di Kapal</text>
<text x="400" y="52" text-anchor="middle" font-size="13" fill="#5A7F93">漁労機械の種類</text>
<g transform="translate(40,110)">
<rect width="166" height="150" rx="14" fill="#FFFFFF" stroke="#0B5C8C" stroke-width="2.5"/>
<g transform="translate(83.0,54)"><circle cx="0" cy="0" r="18" fill="#0B5C8C"/>
<circle cx="0" cy="0" r="7" fill="#fff"/>
<rect x="-24" y="-3" width="14" height="6" fill="#0B5C8C"/></g>
<text x="83.0" y="104" text-anchor="middle" font-weight="700" font-size="12" fill="#1C3A4B">Winch</text>
<text x="83.0" y="124" text-anchor="middle" font-size="10" fill="#5A7F93">ウインチ</text>
</g>
<g transform="translate(224,110)">
<rect width="166" height="150" rx="14" fill="#FFFFFF" stroke="#0B5C8C" stroke-width="2.5"/>
<g transform="translate(83.0,54)"><rect x="-20" y="-10" width="40" height="26" rx="4" fill="#0B5C8C"/>
<circle cx="-8" cy="3" r="5" fill="#fff"/>
<circle cx="8" cy="3" r="5" fill="#fff"/>
<rect x="-6" y="-20" width="12" height="12" rx="2" fill="#0B5C8C"/></g>
<text x="83.0" y="104" text-anchor="middle" font-weight="700" font-size="12" fill="#1C3A4B">Mesin Hidraulik</text>
<text x="83.0" y="124" text-anchor="middle" font-size="10" fill="#5A7F93">油圧装置</text>
</g>
<g transform="translate(408,110)">
<rect width="166" height="150" rx="14" fill="#FFFFFF" stroke="#0B5C8C" stroke-width="2.5"/>
<g transform="translate(83.0,54)"><line x1="-16" y1="22" x2="-16" y2="-18" stroke="#0B5C8C" stroke-width="4"/>
<line x1="-16" y1="-18" x2="18" y2="-6" stroke="#0B5C8C" stroke-width="4"/>
<line x1="12" y1="-8" x2="12" y2="14" stroke="#0B5C8C" stroke-width="2"/>
<circle cx="12" cy="18" r="4" fill="#0B5C8C"/></g>
<text x="83.0" y="104" text-anchor="middle" font-weight="700" font-size="12" fill="#1C3A4B">Crane Kecil</text>
<text x="83.0" y="124" text-anchor="middle" font-size="10" fill="#5A7F93">小型クレーン</text>
</g>
<g transform="translate(592,110)">
<rect width="166" height="150" rx="14" fill="#FFFFFF" stroke="#0B5C8C" stroke-width="2.5"/>
<g transform="translate(83.0,54)"><rect x="-22" y="-16" width="44" height="32" rx="4" fill="#0B5C8C"/>
<circle cx="-10" cy="-2" r="4" fill="#fff"/>
<circle cx="4" cy="-2" r="4" fill="#fff"/>
<rect x="-14" y="8" width="28" height="4" fill="#fff"/></g>
<text x="83.0" y="104" text-anchor="middle" font-weight="700" font-size="12" fill="#1C3A4B">Panel Kontrol</text>
<text x="83.0" y="124" text-anchor="middle" font-size="10" fill="#5A7F93">操作盤</text>
</g>
</svg>